<?xml version="1.0" standalone="no"?>
<!DOCTYPE svg PUBLIC "-//W3C//DTD SVG 20010904//EN"
 "http://www.w3.org/TR/2001/REC-SVG-20010904/DTD/svg10.dtd">
<svg version="1.0" xmlns="http://www.w3.org/2000/svg"
 width="48.000000pt" height="48.000000pt" viewBox="0 0 64.000000 64.000000"
 preserveAspectRatio="xMidYMid meet">
<metadata>
Created by potrace 1.10, written by Peter Selinger 2001-2011
</metadata>
<g transform="translate(0.000000,64.000000) scale(0.100000,-0.100000)"
fill="#000000" stroke="none">
<path d="M212 503 c-31 -12 -42 -61 -42 -193 0 -127 1 -132 25 -156 35 -35 75
-30 96 13 l16 31 30 -28 c38 -35 108 -57 129 -39 28 23 14 51 -56 117 -38 36
-70 70 -70 76 0 7 21 32 46 56 63 62 68 73 44 103 -24 30 -51 26 -79 -9 -21
-26 -41 -32 -41 -11 0 34 -57 57 -98 40z m71 -31 c13 -14 14 -26 7 -57 -14
-62 -12 -61 82 49 23 27 25 28 42 11 16 -16 14 -20 -44 -80 -33 -35 -60 -68
-60 -74 0 -16 103 -111 128 -117 12 -4 22 -10 22 -16 0 -5 -6 -6 -12 -2 -10 6
-10 4 0 -7 17 -18 15 -39 -3 -39 -26 0 -74 29 -121 72 l-44 41 0 -46 c0 -44
-10 -57 -45 -57 -35 0 -42 27 -44 160 -2 106 1 137 14 156 18 28 55 31 78 6z"/>
<path d="M211 184 c0 -11 3 -14 6 -6 3 7 2 16 -1 19 -3 4 -6 -2 -5 -13z"/>
</g>
</svg>
